<svg width="430" height="430" viewBox="0 0 430 430" fill="none" xmlns="http://www.w3.org/2000/svg">
<path d="M403 215C403 318.83 318.83 403 215 403C111.17 403 27 318.83 27 215C27 111.17 111.17 27 215 27C318.83 27 403 111.17 403 215Z" fill="url(#paint0_linear_169_20)"/>
<path fill-rule="evenodd" clip-rule="evenodd" d="M289.333 308.23C242.114 346.049 172.996 343.072 129.224 299.301C82.2587 252.335 82.2587 176.189 129.224 129.224C176.189 82.2587 252.335 82.2587 299.3 129.224C343.072 172.996 346.049 242.114 308.23 289.333L400.086 381.189C405.305 386.407 405.305 394.868 400.086 400.086C394.868 405.305 386.407 405.305 381.189 400.086L335.261 354.158L289.333 308.23ZM148.121 280.403C111.593 243.875 111.593 184.65 148.121 148.121C184.65 111.593 243.875 111.593 280.403 148.121C316.905 184.623 316.932 243.788 280.483 280.323C280.456 280.349 280.43 280.376 280.403 280.403C280.376 280.43 280.349 280.456 280.323 280.483C243.788 316.932 184.623 316.905 148.121 280.403Z" fill="white" stroke="white" stroke-width="23" stroke-linecap="round"/>
<defs>
<linearGradient id="paint0_linear_169_20" x1="-2.328" y1="7.448" x2="433.456" y2="426.312" gradientUnits="userSpaceOnUse">
<stop stop-color="#EB5C37"/>
<stop offset="1" stop-color="#B179EA"/>
</linearGradient>
</defs>
</svg>
