<svg id="Ebene_1" data-name="Ebene 1" xmlns="http://www.w3.org/2000/svg" viewBox="0 0 566.93 566.93"><defs><style>.cls-1{fill:#eb5933;}</style></defs><title>114 logo_Step4</title><polygon class="cls-1" points="273.83 211.03 254.57 230.29 273.83 249.56 312.36 211.03 273.83 172.51 254.57 191.77 273.83 211.03"/><path class="cls-1" d="M150,317.26v-9.82h17.12v10a18.36,18.36,0,0,1,5-7.4,11.55,11.55,0,0,1,8.06-3.64,48.5,48.5,0,0,1,7.09.5l-.91,13-8.21-1.52q-7,.51-10.23,6.08V343.9h10.23v9.73H150v-8.82l6.69-1.82V317.26Z"/><path class="cls-1" d="M214.44,344.71a26.88,26.88,0,0,0,13.88-3.95l3.64,8.92a32.65,32.65,0,0,1-17.62,5.06q-11.55,0-17.07-6.53t-5.52-17.68q0-10.42,5.52-17.27T213,306.43q9.82,0,14.64,5.82a21.44,21.44,0,0,1,4.81,14.13,31.57,31.57,0,0,1-.81,7.9H203.71a11.2,11.2,0,0,0,2.88,7.7Q209.27,344.71,214.44,344.71Zm-10.63-18.94h17.62a8.37,8.37,0,0,0,.1-1.42,8.1,8.1,0,0,0-2.43-6.28,8.68,8.68,0,0,0-6.08-2.22Q204.52,315.85,203.81,325.77Z"/><path class="cls-1" d="M252.37,316.45a5.92,5.92,0,0,1-4.3,1.62,6.11,6.11,0,0,1-4.36-1.62A5.43,5.43,0,0,1,242,312.3a5.59,5.59,0,0,1,1.72-4.2,6,6,0,0,1,4.36-1.67,5.79,5.79,0,0,1,4.3,1.67,5.66,5.66,0,0,1,1.67,4.2A5.5,5.5,0,0,1,252.37,316.45Zm-4.3,37.88a6,6,0,0,1-4.36-1.67,5.59,5.59,0,0,1-1.72-4.2,5.43,5.43,0,0,1,1.72-4.15,6.11,6.11,0,0,1,4.36-1.62,5.92,5.92,0,0,1,4.3,1.62,5.5,5.5,0,0,1,1.67,4.15,5.59,5.59,0,0,1-1.72,4.2A5.85,5.85,0,0,1,248.07,354.33Z"/><path class="cls-1" d="M285.85,347.85a25.7,25.7,0,0,0,14.78-5l2.64,6.28a30.39,30.39,0,0,1-17.53,5.57q-10.94,0-16-6.48t-5.06-17.83q0-10.64,5.16-17.32t15.09-6.68q9.12,0,13.78,5.67a21,21,0,0,1,4.66,13.77,46.32,46.32,0,0,1-.61,7.09h-30Q273.08,347.86,285.85,347.85Zm-13-21h22.79a13.35,13.35,0,0,0,.2-2,12.18,12.18,0,0,0-2.93-8.56,10.38,10.38,0,0,0-8-3.19Q273.8,313.11,272.88,326.89Z"/><path class="cls-1" d="M345.5,312V290H336v-6.89H353.1v63.71h7v6.79H353.5q-6.78,0-7.09-6.39-5.78,7.5-14.58,7.5-9.72,0-14.54-6.33t-4.81-18q0-11.34,4.91-17.67t14.74-6.33Q341,306.43,345.5,312Zm-25,18.43q0,17,13.17,17a14.34,14.34,0,0,0,11.85-6.08V319.29q-3.94-5.57-11.75-5.57Q320.47,313.72,320.48,330.43Z"/><path class="cls-1" d="M409.82,307.44v39.3h7.08v6.89H403.43v-7.4a21.71,21.71,0,0,1-7,6,20.33,20.33,0,0,1-10.08,2.53q-7.9,0-11.3-4.36t-3.39-13.47V314.23h-7.49v-6.79h15.09v28.87q0,5.67,1.87,8.35c1.25,1.79,3.76,2.69,7.55,2.69a16.59,16.59,0,0,0,8.05-2.08,13.85,13.85,0,0,0,5.52-5v-26H392.8v-6.79Z"/><path class="cls-1" d="M151.89,387.29V373.86H150v-1.69h7.22q5.52,0,5.52,4.6a4.24,4.24,0,0,1-1,3,5.08,5.08,0,0,1-2.94,1.46,8.87,8.87,0,0,1,2.24,2.59,13.56,13.56,0,0,1,1.54,3.51h2.07V389h-5.87v-1.69h1.66a12,12,0,0,0-1.49-3.35,8.26,8.26,0,0,0-2.36-2.55h-2.74v5.9h2V389h-5.82v-1.69Zm8.85-10.5a2.84,2.84,0,0,0-.81-2.19,4,4,0,0,0-2.69-.74h-3.39v5.87H157Q160.75,379.73,160.74,376.79Z"/><path class="cls-1" d="M170.94,387.56a6.35,6.35,0,0,0,3.63-1.22l.64,1.54a7.44,7.44,0,0,1-4.3,1.37,4.68,4.68,0,0,1-3.93-1.59,6.93,6.93,0,0,1-1.24-4.38A6.72,6.72,0,0,1,167,379a4.4,4.4,0,0,1,3.7-1.64,4.11,4.11,0,0,1,3.38,1.39,5.13,5.13,0,0,1,1.15,3.38,11.16,11.16,0,0,1-.15,1.74h-7.36Q167.81,387.56,170.94,387.56Zm-3.19-5.15h5.6a3.5,3.5,0,0,0,.05-.5,3,3,0,0,0-.72-2.1,2.55,2.55,0,0,0-2-.78Q168,379,167.75,382.41Z"/><path class="cls-1" d="M182.65,387.56a6.35,6.35,0,0,0,3.63-1.22l.64,1.54a7.44,7.44,0,0,1-4.3,1.37,4.68,4.68,0,0,1-3.93-1.59,7,7,0,0,1-1.24-4.38,6.72,6.72,0,0,1,1.27-4.25,4.4,4.4,0,0,1,3.7-1.64,4.1,4.1,0,0,1,3.38,1.39,5.13,5.13,0,0,1,1.15,3.38,11.16,11.16,0,0,1-.15,1.74h-7.36Q179.52,387.56,182.65,387.56Zm-3.19-5.15h5.6a3.5,3.5,0,0,0,.05-.5,3,3,0,0,0-.72-2.1,2.55,2.55,0,0,0-2-.78Q179.69,379,179.46,382.41Z"/><path class="cls-1" d="M189.06,389v-1.67h1.64v-8h-1.61v-1.69h3.33v1.27a5.14,5.14,0,0,1,4-1.52,3.55,3.55,0,0,1,2.91,1.06,5.12,5.12,0,0,1,.87,3.29v5.57h1.61V389H196.4v-1.67h1.91v-5.42a3.5,3.5,0,0,0-.48-2.05,2.33,2.33,0,0,0-2-.66,5.29,5.29,0,0,0-1.87.35,4.43,4.43,0,0,0-1.44.82v7h1.89V389Z"/><path class="cls-1" d="M214.28,378.36l-2.39.79a3.64,3.64,0,0,1,.89,2.62,3.72,3.72,0,0,1-1.23,3,5.06,5.06,0,0,1-3.39,1.05,5.86,5.86,0,0,1-1.92-.24l-.34,2h3.73a4.44,4.44,0,0,1,2.83.78,2.71,2.71,0,0,1,1,2.25,3.43,3.43,0,0,1-1.5,2.91,6.74,6.74,0,0,1-4,1.1q-4.9,0-4.9-3.09a2.35,2.35,0,0,1,.61-1.61A2.83,2.83,0,0,1,205,389a1.37,1.37,0,0,1-.82-1.37,3.17,3.17,0,0,1,1.24-2.31,3.72,3.72,0,0,1-2-3.58,4.15,4.15,0,0,1,1.23-3.16,5,5,0,0,1,3.56-1.17,4.82,4.82,0,0,1,2.89.77,3.65,3.65,0,0,1,3-1.59Zm-8.21,10.91a2.2,2.2,0,0,0-1.17,1.82c0,1.29,1,1.94,3,1.94a5.07,5.07,0,0,0,2.53-.56,1.78,1.78,0,0,0,1-1.65c0-1-.7-1.55-2.11-1.55Zm2.06-5q2.79,0,2.79-2.58a2.69,2.69,0,0,0-.67-1.92,2.77,2.77,0,0,0-2.12-.72q-2.85,0-2.85,2.64T208.13,384.3Z"/><path class="cls-1" d="M215.27,389v-1.67h2.49v-8h-2.49v-1.69h4.35v9.67H222V389Zm3.28-14.15a1.33,1.33,0,1,1,0-2.66,1.44,1.44,0,0,1,1,.33,1.27,1.27,0,0,1,.39,1,1.2,1.2,0,0,1-.39,1A1.44,1.44,0,0,1,218.55,374.83Z"/><path class="cls-1" d="M223.38,389v-1.67H225v-8H223.4v-1.69h3.33v1.27a5.17,5.17,0,0,1,4-1.52,3.55,3.55,0,0,1,2.91,1.06,5.12,5.12,0,0,1,.87,3.29v5.57h1.62V389h-5.4v-1.67h1.92v-5.42a3.42,3.42,0,0,0-.49-2.05,2.3,2.3,0,0,0-1.95-.66,5.24,5.24,0,0,0-1.86.35,4.39,4.39,0,0,0-1.45.82v7h1.89V389Z"/><path class="cls-1" d="M242.92,387.56a6.33,6.33,0,0,0,3.63-1.22l.65,1.54a7.47,7.47,0,0,1-4.3,1.37,4.68,4.68,0,0,1-3.93-1.59,6.94,6.94,0,0,1-1.25-4.38A6.78,6.78,0,0,1,239,379a4.42,4.42,0,0,1,3.71-1.64,4.11,4.11,0,0,1,3.38,1.39,5.18,5.18,0,0,1,1.14,3.38,11.16,11.16,0,0,1-.15,1.74h-7.36Q239.78,387.56,242.92,387.56Zm-3.18-5.15h5.59a2.47,2.47,0,0,0,0-.5,3,3,0,0,0-.72-2.1,2.53,2.53,0,0,0-2-.78C240.87,379,239.89,380.16,239.74,382.41Z"/><path class="cls-1" d="M254.63,387.56a6.3,6.3,0,0,0,3.63-1.22l.65,1.54a7.47,7.47,0,0,1-4.3,1.37,4.68,4.68,0,0,1-3.93-1.59,6.93,6.93,0,0,1-1.24-4.38A6.77,6.77,0,0,1,250.7,379a4.43,4.43,0,0,1,3.71-1.64,4.11,4.11,0,0,1,3.38,1.39,5.18,5.18,0,0,1,1.14,3.38,11.08,11.08,0,0,1-.14,1.74h-7.36C251.48,386.34,252.54,387.56,254.63,387.56Zm-3.18-5.15H257a2.47,2.47,0,0,0,0-.5,3,3,0,0,0-.72-2.1,2.53,2.53,0,0,0-2-.78Q251.68,379,251.45,382.41Z"/><path class="cls-1" d="M261.05,379.33v-1.69h3.45v2.43a4.88,4.88,0,0,1,1.31-1.86,2.85,2.85,0,0,1,1.95-.82,11.06,11.06,0,0,1,1.84.15l-.22,2.29-1.87-.48a3.33,3.33,0,0,0-1.65.67,4.14,4.14,0,0,0-1.26,1.52v5.77h2.71V389h-6.26v-1.5l1.69-.34v-7.81Z"/><path class="cls-1" d="M270.82,389v-1.67h2.49v-8h-2.49v-1.69h4.35v9.67h2.36V389Zm3.28-14.15a1.33,1.33,0,1,1,0-2.66,1.44,1.44,0,0,1,1,.33,1.26,1.26,0,0,1,.38,1,1.19,1.19,0,0,1-.38,1A1.44,1.44,0,0,1,274.1,374.83Z"/><path class="cls-1" d="M278.93,389v-1.67h1.64v-8H279v-1.69h3.33v1.27a5.16,5.16,0,0,1,4-1.52,3.55,3.55,0,0,1,2.91,1.06,5.12,5.12,0,0,1,.87,3.29v5.57h1.62V389h-5.4v-1.67h1.92v-5.42a3.49,3.49,0,0,0-.49-2.05,2.3,2.3,0,0,0-1.95-.66,5.24,5.24,0,0,0-1.86.35,4.39,4.39,0,0,0-1.45.82v7h1.89V389Z"/><path class="cls-1" d="M304.14,378.36l-2.39.79a3.64,3.64,0,0,1,.9,2.62,3.72,3.72,0,0,1-1.23,3,5.07,5.07,0,0,1-3.4,1.05,5.79,5.79,0,0,1-1.91-.24l-.35,2h3.73a4.47,4.47,0,0,1,2.84.78,2.74,2.74,0,0,1,1,2.25,3.44,3.44,0,0,1-1.51,2.91,6.72,6.72,0,0,1-4,1.1q-4.9,0-4.9-3.09a2.35,2.35,0,0,1,.61-1.61,2.9,2.9,0,0,1,1.36-.92,1.37,1.37,0,0,1-.82-1.37,3.13,3.13,0,0,1,1.24-2.31,3.71,3.71,0,0,1-2-3.58,4.15,4.15,0,0,1,1.23-3.16,5,5,0,0,1,3.57-1.17,4.76,4.76,0,0,1,2.88.77,3.67,3.67,0,0,1,3-1.59Zm-8.2,10.91a2.17,2.17,0,0,0-1.17,1.82c0,1.29,1,1.94,3,1.94a5.11,5.11,0,0,0,2.54-.56,1.8,1.8,0,0,0,1-1.65c0-1-.71-1.55-2.12-1.55Zm2.06-5c1.85,0,2.78-.86,2.78-2.58a2.69,2.69,0,0,0-.67-1.92,2.76,2.76,0,0,0-2.11-.72c-1.91,0-2.86.88-2.86,2.64S296.09,384.3,298,384.3Z"/><path class="cls-1" d="M320.45,384.58h1.94V389h-12v-1.69h1.86V373.86h-1.86v-1.69h11.88v4.25h-1.84v-2.56h-6.24v5.67H320v1.71h-5.79v6.05h6.24Z"/><path class="cls-1" d="M332.79,378.76v-5.4h-2.34v-1.69h4.2v15.64h1.72V389h-1.62a1.51,1.51,0,0,1-1.74-1.57,4.34,4.34,0,0,1-3.58,1.84,4.22,4.22,0,0,1-3.57-1.55,7.18,7.18,0,0,1-1.18-4.42,6.91,6.91,0,0,1,1.21-4.34,4.3,4.3,0,0,1,3.61-1.55A4,4,0,0,1,332.79,378.76Zm-6.15,4.52q0,4.19,3.24,4.18a3.55,3.55,0,0,0,2.91-1.49v-5.42a3.32,3.32,0,0,0-2.89-1.37Q326.65,379.18,326.64,383.28Z"/><path class="cls-1" d="M348.57,377.64v9.65h1.74V389H347v-1.82a5.52,5.52,0,0,1-1.73,1.47,5,5,0,0,1-2.47.62,3.33,3.33,0,0,1-2.78-1.07,5.39,5.39,0,0,1-.83-3.31V379.3h-1.84v-1.66h3.71v7.08a3.63,3.63,0,0,0,.46,2.06,2.12,2.12,0,0,0,1.85.65,4,4,0,0,0,2-.51,3.23,3.23,0,0,0,1.36-1.23V379.3H344.4v-1.66Z"/><path class="cls-1" d="M357.23,387.48a6.71,6.71,0,0,0,3.65-1l.55,1.62a8.71,8.71,0,0,1-4.4,1.19,4.52,4.52,0,0,1-3.83-1.65,6.89,6.89,0,0,1-1.27-4.32,6.57,6.57,0,0,1,1.33-4.23,4.67,4.67,0,0,1,3.87-1.66,9.32,9.32,0,0,1,4.13.94l-.43,3.86h-1.51V379.4a6.05,6.05,0,0,0-2.17-.35,2.7,2.7,0,0,0-2.38,1.12,5.14,5.14,0,0,0-.77,3C354,386,355.07,387.48,357.23,387.48Z"/><path class="cls-1" d="M365.86,379.55v2h-1.6a4.51,4.51,0,0,1-.32-1.67,2,2,0,0,1,1.08-1.79,6.06,6.06,0,0,1,3.17-.67,8.44,8.44,0,0,1,2.24.24,2.22,2.22,0,0,1,1.27.82,3.24,3.24,0,0,1,.56,1.29,10.68,10.68,0,0,1,.14,1.93v4.92q0,.84.69.84a5.55,5.55,0,0,0,.87-.09V389a7.13,7.13,0,0,1-1.41.13,2,2,0,0,1-1.38-.45,1.71,1.71,0,0,1-.56-1.25,4.77,4.77,0,0,1-3.88,1.82,3.57,3.57,0,0,1-2.58-.85,3.06,3.06,0,0,1-.88-2.33,2.62,2.62,0,0,1,1.32-2.43,10,10,0,0,1,3.89-1.07l2-.23v-2.79a4.47,4.47,0,0,0-2.29-.44A5.12,5.12,0,0,0,365.86,379.55Zm-.58,6.39c0,1.11.64,1.67,1.92,1.67a4.47,4.47,0,0,0,3.28-1.37v-2.55l-1.94.27a7.25,7.25,0,0,0-2.51.68A1.41,1.41,0,0,0,365.28,385.94Z"/><path class="cls-1" d="M378.81,379.33v6.41c0,1.15.51,1.72,1.52,1.72a5,5,0,0,0,1.76-.27l.2,1.66a6.33,6.33,0,0,1-2.43.4,2.67,2.67,0,0,1-2.21-.88,3.8,3.8,0,0,1-.7-2.43v-6.61h-2.17v-1.44l2.17-.25v-2.86l1.86-.35v3.21h3.08v1.69Z"/><path class="cls-1" d="M383.68,389v-1.67h2.49v-8h-2.49v-1.69H388v9.67h2.37V389ZM387,374.83c-.92,0-1.37-.44-1.37-1.32a1.19,1.19,0,0,1,1.37-1.34,1.39,1.39,0,0,1,.95.33,1.27,1.27,0,0,1,.39,1,1.2,1.2,0,0,1-.39,1A1.39,1.39,0,0,1,387,374.83Z"/><path class="cls-1" d="M397,377.39q5.14,0,5.14,5.89t-5.19,6a4.6,4.6,0,0,1-3.89-1.59,6.94,6.94,0,0,1-1.24-4.35Q391.81,377.39,397,377.39Zm0,10.12a2.73,2.73,0,0,0,2.45-1.06,5.68,5.68,0,0,0,.7-3.14,5.47,5.47,0,0,0-.72-3.15,2.78,2.78,0,0,0-2.46-1,2.75,2.75,0,0,0-2.43,1,5.4,5.4,0,0,0-.73,3.12,5.56,5.56,0,0,0,.74,3.17A2.75,2.75,0,0,0,397,387.51Z"/><path class="cls-1" d="M404.17,389v-1.67h1.64v-8H404.2v-1.69h3.33v1.27a5.14,5.14,0,0,1,4-1.52,3.55,3.55,0,0,1,2.91,1.06,5.12,5.12,0,0,1,.87,3.29v5.57h1.61V389h-5.39v-1.67h1.91v-5.42a3.5,3.5,0,0,0-.48-2.05,2.32,2.32,0,0,0-1.95-.66,5.34,5.34,0,0,0-1.87.35,4.43,4.43,0,0,0-1.44.82v7h1.89V389Z"/></svg>