<svg width="430" height="430" viewBox="0 0 430 430" fill="none" xmlns="http://www.w3.org/2000/svg">
<path d="M428.856 214.428C428.856 332.854 332.853 428.856 214.428 428.856C96.0026 428.856 -0.000244141 332.854 -0.000244141 214.428C-0.000244141 96.0028 96.0026 0 214.428 0C332.853 0 428.856 96.0028 428.856 214.428Z" fill="url(#paint0_linear_169_21)"/>
<path fill-rule="evenodd" clip-rule="evenodd" d="M299.147 320.712C245.263 363.868 166.388 360.472 116.438 310.521C62.843 256.927 62.843 170.032 116.438 116.437C170.033 62.8423 256.927 62.8423 310.522 116.437C360.472 166.387 363.869 245.262 320.712 299.147L425.534 403.969C431.489 409.924 431.489 419.579 425.534 425.534C419.579 431.489 409.924 431.489 403.969 425.534L351.558 373.123L299.147 320.712ZM138.003 288.957C96.3179 247.272 96.3179 179.687 138.003 138.002C179.688 96.3172 247.272 96.3172 288.957 138.002C330.611 179.656 330.642 247.172 289.049 288.865C289.018 288.895 288.987 288.925 288.957 288.956C288.926 288.987 288.896 289.017 288.865 289.048C247.173 330.641 179.657 330.611 138.003 288.957Z" fill="white" stroke="white" stroke-width="6" stroke-linecap="round"/>
<defs>
<linearGradient id="paint0_linear_169_21" x1="-33.4511" y1="-22.3005" x2="463.594" y2="455.446" gradientUnits="userSpaceOnUse">
<stop stop-color="#EB5C37"/>
<stop offset="1" stop-color="#B179EA"/>
</linearGradient>
</defs>
</svg>
