<svg width="423" height="119" viewBox="0 0 423 119" fill="none" xmlns="http://www.w3.org/2000/svg">
<path d="M206 66.5C206 87.2107 189.211 104 168.5 104C147.789 104 131 87.2107 131 66.5C131 45.7893 147.789 29 168.5 29C189.211 29 206 45.7893 206 66.5Z" fill="url(#paint0_linear_99_52)"/>
<path fill-rule="evenodd" clip-rule="evenodd" d="M183.316 85.0872C173.893 92.6346 160.099 92.0406 151.363 83.3051C141.99 73.9323 141.99 58.7358 151.363 49.363C160.736 39.9901 175.932 39.9901 185.305 49.363C194.041 58.0985 194.635 71.8924 187.087 81.3159L205.419 99.6476C206.461 100.689 206.461 102.377 205.419 103.419C204.378 104.46 202.689 104.46 201.648 103.419L192.482 94.2531L183.316 85.0872ZM155.134 79.5338C147.844 72.2438 147.844 60.4243 155.134 53.1343C162.424 45.8443 174.244 45.8443 181.534 53.1343C188.819 60.419 188.824 72.2264 181.55 79.5177C181.545 79.523 181.539 79.5283 181.534 79.5337C181.529 79.539 181.523 79.5444 181.518 79.5498C174.227 86.8238 162.419 86.8184 155.134 79.5338Z" fill="white" stroke="white" stroke-width="6" stroke-linecap="round"/>
<path d="M7.3892 93V40.6364H21.4688V49.7727H22.0142C22.9688 46.5227 24.571 44.0682 26.821 42.4091C29.071 40.7273 31.6619 39.8864 34.5938 39.8864C35.321 39.8864 36.1051 39.9318 36.946 40.0227C37.7869 40.1136 38.5256 40.2386 39.1619 40.3977V53.2841C38.4801 53.0795 37.5369 52.8977 36.3324 52.7386C35.1278 52.5795 34.0256 52.5 33.0256 52.5C30.8892 52.5 28.9801 52.9659 27.2983 53.8977C25.6392 54.8068 24.321 56.0795 23.3438 57.7159C22.3892 59.3523 21.9119 61.2386 21.9119 63.375V93H7.3892ZM68.0966 94.0227C62.7102 94.0227 58.0739 92.9318 54.1875 90.75C50.3239 88.5455 47.3466 85.4318 45.2557 81.4091C43.1648 77.3636 42.1193 72.5795 42.1193 67.0568C42.1193 61.6705 43.1648 56.9432 45.2557 52.875C47.3466 48.8068 50.2898 45.6364 54.0852 43.3636C57.9034 41.0909 62.3807 39.9545 67.517 39.9545C70.9716 39.9545 74.1875 40.5114 77.1648 41.625C80.1648 42.7159 82.7784 44.3636 85.0057 46.5682C87.2557 48.7727 89.0057 51.5455 90.2557 54.8864C91.5057 58.2045 92.1307 62.0909 92.1307 66.5455V70.5341H47.9148V61.5341H78.4602C78.4602 59.4432 78.0057 57.5909 77.0966 55.9773C76.1875 54.3636 74.9261 53.1023 73.3125 52.1932C71.7216 51.2614 69.8693 50.7955 67.7557 50.7955C65.5511 50.7955 63.5966 51.3068 61.892 52.3295C60.2102 53.3295 58.892 54.6818 57.9375 56.3864C56.983 58.0682 56.4943 59.9432 56.4716 62.0114V70.5682C56.4716 73.1591 56.9489 75.3977 57.9034 77.2841C58.8807 79.1705 60.2557 80.625 62.0284 81.6477C63.8011 82.6705 65.9034 83.1818 68.3352 83.1818C69.9489 83.1818 71.4261 82.9545 72.767 82.5C74.108 82.0455 75.2557 81.3636 76.2102 80.4545C77.1648 79.5455 77.892 78.4318 78.392 77.1136L91.8239 78C91.142 81.2273 89.7443 84.0455 87.6307 86.4545C85.5398 88.8409 82.8352 90.7045 79.517 92.0455C76.2216 93.3636 72.4148 94.0227 68.0966 94.0227ZM110.097 93.8864C107.847 93.8864 105.915 93.0909 104.301 91.5C102.71 89.8864 101.915 87.9545 101.915 85.7045C101.915 83.4773 102.71 81.5682 104.301 79.9773C105.915 78.3864 107.847 77.5909 110.097 77.5909C112.278 77.5909 114.188 78.3864 115.824 79.9773C117.46 81.5682 118.278 83.4773 118.278 85.7045C118.278 87.2045 117.892 88.5795 117.119 89.8295C116.369 91.0568 115.381 92.0455 114.153 92.7955C112.926 93.5227 111.574 93.8864 110.097 93.8864ZM110.097 57.2045C107.847 57.2045 105.915 56.4091 104.301 54.8182C102.71 53.2273 101.915 51.2955 101.915 49.0227C101.915 46.7955 102.71 44.8977 104.301 43.3295C105.915 41.7386 107.847 40.9432 110.097 40.9432C112.278 40.9432 114.188 41.7386 115.824 43.3295C117.46 44.8977 118.278 46.7955 118.278 49.0227C118.278 50.5455 117.892 51.9318 117.119 53.1818C116.369 54.4091 115.381 55.3864 114.153 56.1136C112.926 56.8409 111.574 57.2045 110.097 57.2045Z" fill="white"/>
<path d="M252.219 70.7045V40.6364H266.741V93H252.798V83.4886H252.253C251.071 86.5568 249.105 89.0227 246.355 90.8864C243.628 92.75 240.298 93.6818 236.366 93.6818C232.866 93.6818 229.787 92.8864 227.128 91.2955C224.469 89.7045 222.389 87.4432 220.889 84.5114C219.412 81.5795 218.662 78.0682 218.639 73.9773V40.6364H233.162V71.3864C233.185 74.4773 234.014 76.9205 235.651 78.7159C237.287 80.5114 239.48 81.4091 242.23 81.4091C243.98 81.4091 245.616 81.0114 247.139 80.2159C248.662 79.3977 249.889 78.1932 250.821 76.6023C251.776 75.0114 252.241 73.0455 252.219 70.7045ZM302.222 94.0227C296.835 94.0227 292.199 92.9318 288.312 90.75C284.449 88.5455 281.472 85.4318 279.381 81.4091C277.29 77.3636 276.244 72.5795 276.244 67.0568C276.244 61.6705 277.29 56.9432 279.381 52.875C281.472 48.8068 284.415 45.6364 288.21 43.3636C292.028 41.0909 296.506 39.9545 301.642 39.9545C305.097 39.9545 308.313 40.5114 311.29 41.625C314.29 42.7159 316.903 44.3636 319.131 46.5682C321.381 48.7727 323.131 51.5455 324.381 54.8864C325.631 58.2045 326.256 62.0909 326.256 66.5455V70.5341H282.04V61.5341H312.585C312.585 59.4432 312.131 57.5909 311.222 55.9773C310.313 54.3636 309.051 53.1023 307.438 52.1932C305.847 51.2614 303.994 50.7955 301.881 50.7955C299.676 50.7955 297.722 51.3068 296.017 52.3295C294.335 53.3295 293.017 54.6818 292.062 56.3864C291.108 58.0682 290.619 59.9432 290.597 62.0114V70.5682C290.597 73.1591 291.074 75.3977 292.028 77.2841C293.006 79.1705 294.381 80.625 296.153 81.6477C297.926 82.6705 300.028 83.1818 302.46 83.1818C304.074 83.1818 305.551 82.9545 306.892 82.5C308.233 82.0455 309.381 81.3636 310.335 80.4545C311.29 79.5455 312.017 78.4318 312.517 77.1136L325.949 78C325.267 81.2273 323.869 84.0455 321.756 86.4545C319.665 88.8409 316.96 90.7045 313.642 92.0455C310.347 93.3636 306.54 94.0227 302.222 94.0227ZM379.301 55.5682L366.006 56.3864C365.778 55.25 365.29 54.2273 364.54 53.3182C363.79 52.3864 362.801 51.6477 361.574 51.1023C360.369 50.5341 358.926 50.25 357.244 50.25C354.994 50.25 353.097 50.7273 351.551 51.6818C350.006 52.6136 349.233 53.8636 349.233 55.4318C349.233 56.6818 349.733 57.7386 350.733 58.6023C351.733 59.4659 353.449 60.1591 355.881 60.6818L365.358 62.5909C370.449 63.6364 374.244 65.3182 376.744 67.6364C379.244 69.9545 380.494 73 380.494 76.7727C380.494 80.2045 379.483 83.2159 377.46 85.8068C375.46 88.3977 372.71 90.4205 369.21 91.875C365.733 93.3068 361.722 94.0227 357.176 94.0227C350.244 94.0227 344.722 92.5795 340.608 89.6932C336.517 86.7841 334.119 82.8295 333.415 77.8295L347.699 77.0795C348.131 79.1932 349.176 80.8068 350.835 81.9205C352.494 83.0114 354.619 83.5568 357.21 83.5568C359.756 83.5568 361.801 83.0682 363.347 82.0909C364.915 81.0909 365.71 79.8068 365.733 78.2386C365.71 76.9205 365.153 75.8409 364.062 75C362.972 74.1364 361.29 73.4773 359.017 73.0227L349.949 71.2159C344.835 70.1932 341.028 68.4205 338.528 65.8977C336.051 63.375 334.812 60.1591 334.812 56.25C334.812 52.8864 335.722 49.9886 337.54 47.5568C339.381 45.125 341.96 43.25 345.278 41.9318C348.619 40.6136 352.528 39.9545 357.006 39.9545C363.619 39.9545 368.824 41.3523 372.619 44.1477C376.438 46.9432 378.665 50.75 379.301 55.5682ZM417.491 40.6364V51.5455H385.957V40.6364H417.491ZM393.116 28.0909H407.639V76.9091C407.639 78.25 407.844 79.2955 408.253 80.0455C408.662 80.7727 409.23 81.2841 409.957 81.5795C410.707 81.875 411.571 82.0227 412.548 82.0227C413.23 82.0227 413.912 81.9659 414.594 81.8523C415.276 81.7159 415.798 81.6136 416.162 81.5455L418.446 92.3523C417.719 92.5795 416.696 92.8409 415.378 93.1364C414.06 93.4545 412.457 93.6477 410.571 93.7159C407.071 93.8523 404.003 93.3864 401.366 92.3182C398.753 91.25 396.719 89.5909 395.264 87.3409C393.81 85.0909 393.094 82.25 393.116 78.8182V28.0909Z" fill="white"/>
<defs>
<linearGradient id="paint0_linear_99_52" x1="125.15" y1="25.1" x2="212.075" y2="108.65" gradientUnits="userSpaceOnUse">
<stop stop-color="#EB5C37"/>
<stop offset="1" stop-color="#B179EA"/>
</linearGradient>
</defs>
</svg>
